<svg xmlns="http://www.w3.org/2000/svg" viewBox="0 0 24 24" width="24" height="24">
  <path fill="#4B49AC" d="M18,11C19.66,11 21,12.34 21,14V17H20V20C20,20.55 19.55,21 19,21H18C17.45,21 17,20.55 17,20V17H13V20C13,20.55 12.55,21 12,21H11C10.45,21 10,20.55 10,20V17H9V14C9,12.34 10.34,11 12,11H18M18,12H12C10.9,12 10,12.9 10,14V16H20V14C20,12.9 19.1,12 18,12M12,18C12.55,18 13,18.45 13,19C13,19.55 12.55,20 12,20C11.45,20 11,19.55 11,19C11,18.45 11.45,18 12,18M18,18C18.55,18 19,18.45 19,19C19,19.55 18.55,20 18,20C17.45,20 17,19.55 17,19C17,18.45 17.45,18 18,18M18.85,3C19.5,3 20.08,3.39 20.32,4L22,9V15H20V16H18V15H10V16H8V15H6V9L7.68,4C7.92,3.39 8.5,3 9.15,3H18.85M18.23,4H9.77L8.5,8H19.5L18.23,4Z" />
</svg>
